<svg xmlns="http://www.w3.org/2000/svg" xmlns:xlink="http://www.w3.org/1999/xlink" width="500" zoomAndPan="magnify" viewBox="0 0 375 374.999991" height="500" preserveAspectRatio="xMidYMid meet" version="1.0"><defs><g/><clipPath id="1b4a24467e"><path d="M 4.113281 113.402344 L 98.613281 113.402344 L 98.613281 163 L 4.113281 163 Z M 4.113281 113.402344 " clip-rule="nonzero"/></clipPath><clipPath id="9007359af1"><path d="M 4.113281 166 L 98 166 L 98 248.402344 L 4.113281 248.402344 Z M 4.113281 166 " clip-rule="nonzero"/></clipPath></defs><g clip-path="url(#1b4a24467e)"><path fill="#ff5757" d="M 70.238281 132.59375 C 63.171875 132.59375 56.550781 135.144531 51.351562 139.800781 C 46.335938 135.324219 39.722656 132.59375 32.480469 132.59375 C 31.34375 132.59375 30.222656 132.671875 29.117188 132.800781 C 32.695312 123.984375 41.25 118.089844 51.050781 118.089844 C 60.800781 118.089844 69.347656 123.957031 72.945312 132.726562 C 72.054688 132.644531 71.15625 132.59375 70.238281 132.59375 Z M 78.269531 133.757812 C 74.738281 121.707031 63.742188 113.410156 51.050781 113.410156 C 38.253906 113.410156 27.226562 121.796875 23.769531 133.96875 C 12.375 137.652344 4.113281 148.355469 4.113281 160.957031 C 4.113281 161.429688 4.125 161.898438 4.148438 162.367188 L 8.84375 162.367188 C 8.816406 161.898438 8.796875 161.429688 8.796875 160.957031 C 8.796875 147.898438 19.421875 137.277344 32.480469 137.277344 C 45.539062 137.277344 56.164062 147.898438 56.164062 160.957031 C 56.164062 161.429688 56.148438 161.898438 56.121094 162.367188 L 60.8125 162.367188 C 60.835938 161.898438 60.851562 161.429688 60.851562 160.957031 C 60.851562 154.238281 58.496094 148.0625 54.578125 143.199219 C 58.902344 139.367188 64.386719 137.277344 70.238281 137.277344 C 83.300781 137.277344 93.925781 147.898438 93.925781 160.957031 C 93.925781 161.429688 93.90625 161.898438 93.878906 162.367188 L 98.574219 162.367188 C 98.597656 161.898438 98.609375 161.429688 98.609375 160.957031 C 98.609375 148.105469 90.011719 137.230469 78.269531 133.757812 " fill-opacity="1" fill-rule="nonzero"/></g><g clip-path="url(#9007359af1)"><path fill="#ff5757" d="M 44.78125 199.175781 C 44.554688 201.03125 42.871094 202.355469 41.011719 202.132812 C 40.878906 202.117188 40.726562 202.089844 40.601562 202.058594 C 40.601562 202.058594 39.984375 201.90625 38.90625 201.636719 C 38.367188 201.515625 37.726562 201.289062 36.984375 201.070312 C 36.25 200.847656 35.433594 200.523438 34.546875 200.191406 C 33.671875 199.820312 32.726562 199.417969 31.761719 198.917969 C 31.273438 198.6875 30.789062 198.402344 30.292969 198.125 C 29.792969 197.855469 29.300781 197.546875 28.808594 197.230469 C 28.304688 196.921875 27.8125 196.582031 27.320312 196.226562 C 26.824219 195.890625 26.339844 195.507812 25.859375 195.128906 C 24.890625 194.375 23.96875 193.539062 23.078125 192.683594 C 22.203125 191.804688 21.359375 190.910156 20.589844 189.976562 C 19.808594 189.058594 19.113281 188.097656 18.453125 187.167969 C 17.8125 186.222656 17.21875 185.296875 16.710938 184.394531 C 16.1875 183.492188 15.738281 182.621094 15.34375 181.808594 C 14.5625 180.179688 14.019531 178.78125 13.679688 177.78125 C 13.507812 177.28125 13.382812 176.882812 13.304688 176.605469 C 13.222656 176.320312 13.179688 176.167969 13.179688 176.167969 C 13.019531 175.59375 13.355469 175 13.929688 174.839844 C 14.460938 174.691406 15.007812 174.964844 15.214844 175.460938 L 15.234375 175.515625 C 15.234375 175.515625 15.285156 175.636719 15.382812 175.863281 C 15.484375 176.097656 15.640625 176.445312 15.855469 176.886719 C 16.285156 177.761719 16.949219 179 17.855469 180.410156 C 18.3125 181.113281 18.824219 181.863281 19.40625 182.625 C 19.972656 183.394531 20.621094 184.167969 21.300781 184.949219 C 22 185.714844 22.730469 186.492188 23.527344 187.21875 C 24.308594 187.964844 25.152344 188.65625 26.007812 189.324219 C 26.878906 189.972656 27.765625 190.597656 28.671875 191.140625 C 29.128906 191.410156 29.570312 191.683594 30.035156 191.917969 C 30.488281 192.164062 30.9375 192.402344 31.394531 192.605469 C 31.84375 192.820312 32.289062 193.027344 32.738281 193.199219 C 33.183594 193.382812 33.609375 193.566406 34.046875 193.707031 C 34.898438 194.027344 35.730469 194.257812 36.488281 194.476562 C 37.261719 194.660156 37.960938 194.84375 38.597656 194.949219 C 39.234375 195.050781 39.773438 195.175781 40.238281 195.21875 C 41.152344 195.328125 41.675781 195.390625 41.675781 195.390625 L 41.820312 195.410156 C 43.675781 195.632812 45.003906 197.316406 44.78125 199.175781 Z M 95.371094 166.683594 L 7.347656 166.683594 C 5.859375 166.683594 4.6875 167.890625 4.832031 169.371094 C 6.792969 189.730469 21.816406 206.269531 41.425781 210.511719 C 42.882812 210.828125 44.078125 212.214844 44.078125 213.703125 L 44.078125 235.613281 C 44.078125 237.105469 43.015625 238.886719 41.707031 239.597656 L 30.207031 245.835938 C 27.589844 247.253906 27.882812 248.40625 30.863281 248.40625 L 71.859375 248.40625 C 74.839844 248.40625 75.132812 247.253906 72.511719 245.835938 L 61.015625 239.597656 C 59.703125 238.886719 58.640625 237.101562 58.640625 235.613281 L 58.640625 213.703125 C 58.640625 212.214844 59.835938 210.828125 61.292969 210.511719 C 80.902344 206.269531 95.929688 189.730469 97.890625 169.371094 C 98.03125 167.890625 96.863281 166.683594 95.371094 166.683594 " fill-opacity="1" fill-rule="nonzero"/></g><g fill="#ff5757" fill-opacity="1"><g transform="translate(73.365248, 248.363119)"><g><path d="M 22.574219 -9.464844 C 21.425781 -7.003906 18.640625 -5.324219 15.773438 -5.324219 C 11.265625 -5.324219 7.660156 -9.175781 7.660156 -13.929688 C 7.660156 -18.640625 11.265625 -22.53125 15.773438 -22.53125 C 18.597656 -22.53125 21.386719 -20.976562 22.53125 -18.476562 L 29.375 -18.476562 C 27.488281 -24.171875 22.121094 -28.269531 15.773438 -28.269531 C 7.867188 -28.269531 1.433594 -21.835938 1.433594 -13.929688 C 1.433594 -6.023438 7.867188 0.410156 15.773438 0.410156 C 22.121094 0.410156 27.53125 -3.726562 29.414062 -9.464844 Z M 22.574219 -9.464844 "/></g></g></g><g fill="#ff5757" fill-opacity="1"><g transform="translate(111.996231, 248.363119)"><g><path d="M 18.597656 -5.570312 L 8.601562 -5.570312 L 8.601562 -11.183594 L 18.191406 -11.183594 L 18.191406 -16.753906 L 8.601562 -16.753906 L 8.601562 -22.285156 L 18.597656 -22.285156 L 18.597656 -27.859375 L 2.457031 -27.859375 L 2.457031 0 L 18.597656 0 Z M 18.597656 -5.570312 "/></g></g></g><g fill="#ff5757" fill-opacity="1"><g transform="translate(141.246168, 248.363119)"><g><path d="M 13.316406 -7.375 L 13.316406 -10.773438 L 0.613281 -10.773438 L 0.613281 -7.375 Z M 13.316406 -7.375 "/></g></g></g><g fill="#ff5757" fill-opacity="1"><g transform="translate(163.368139, 248.363119)"><g><path d="M 22.574219 -9.464844 C 21.425781 -7.003906 18.640625 -5.324219 15.773438 -5.324219 C 11.265625 -5.324219 7.660156 -9.175781 7.660156 -13.929688 C 7.660156 -18.640625 11.265625 -22.53125 15.773438 -22.53125 C 18.597656 -22.53125 21.386719 -20.976562 22.53125 -18.476562 L 29.375 -18.476562 C 27.488281 -24.171875 22.121094 -28.269531 15.773438 -28.269531 C 7.867188 -28.269531 1.433594 -21.835938 1.433594 -13.929688 C 1.433594 -6.023438 7.867188 0.410156 15.773438 0.410156 C 22.121094 0.410156 27.53125 -3.726562 29.414062 -9.464844 Z M 22.574219 -9.464844 "/></g></g></g><g fill="#ff5757" fill-opacity="1"><g transform="translate(201.999122, 248.363119)"><g><path d="M 8.601562 -9.957031 L 8.644531 -9.957031 L 15.28125 0 L 23.066406 0 L 15.074219 -10.242188 C 18.597656 -11.101562 21.425781 -14.214844 21.425781 -18.925781 C 21.425781 -24.210938 17.410156 -27.859375 12.90625 -27.859375 L 2.457031 -27.859375 L 2.457031 0 L 8.601562 0 Z M 11.878906 -23.023438 C 13.683594 -23.023438 15.566406 -21.46875 15.566406 -18.925781 C 15.566406 -16.265625 13.683594 -14.789062 11.878906 -14.789062 L 8.601562 -14.789062 L 8.601562 -23.023438 Z M 11.878906 -23.023438 "/></g></g></g><g fill="#ff5757" fill-opacity="1"><g transform="translate(232.764766, 248.363119)"><g><path d="M 18.597656 -5.570312 L 8.601562 -5.570312 L 8.601562 -11.183594 L 18.191406 -11.183594 L 18.191406 -16.753906 L 8.601562 -16.753906 L 8.601562 -22.285156 L 18.597656 -22.285156 L 18.597656 -27.859375 L 2.457031 -27.859375 L 2.457031 0 L 18.597656 0 Z M 18.597656 -5.570312 "/></g></g></g><g fill="#ff5757" fill-opacity="1"><g transform="translate(262.014704, 248.363119)"><g><path d="M 17.617188 -10.652344 L 10.570312 -10.652344 L 14.09375 -20.566406 Z M 28.023438 0 L 16.714844 -27.859375 L 11.511719 -27.859375 L 0.203125 0 L 6.800781 0 L 8.808594 -5.613281 L 19.417969 -5.613281 L 21.425781 0 Z M 28.023438 0 "/></g></g></g><g fill="#ff5757" fill-opacity="1"><g transform="translate(298.43358, 248.363119)"><g><path d="M 37.199219 0 L 31.792969 -27.859375 L 24.5 -27.859375 L 18.722656 -8.316406 L 12.90625 -27.859375 L 5.613281 -27.859375 L 0.203125 0 L 6.964844 0 L 10.242188 -19.214844 L 15.691406 0 L 21.714844 0 L 27.160156 -19.214844 L 30.4375 0 Z M 37.199219 0 "/></g></g></g><g fill="#ff5757" fill-opacity="1"><g transform="translate(344.028673, 248.363119)"><g><path d="M 10.609375 0 L 16.753906 0 L 16.753906 -13.316406 L 27.039062 -27.859375 L 19.707031 -27.859375 L 13.683594 -18.230469 L 7.660156 -27.859375 L 0.328125 -27.859375 L 10.609375 -13.316406 Z M 10.609375 0 "/></g></g></g></svg>