<svg xmlns="http://www.w3.org/2000/svg" xmlns:xlink="http://www.w3.org/1999/xlink" width="500" zoomAndPan="magnify" viewBox="0 0 375 149.999998" height="200" preserveAspectRatio="xMidYMid meet" version="1.0"><defs><g/><clipPath id="14c120ab6b"><path d="M 7.492188 22.269531 L 68.992188 22.269531 L 68.992188 55 L 7.492188 55 Z M 7.492188 22.269531 " clip-rule="nonzero"/></clipPath><clipPath id="dc2eb2895c"><path d="M 7.492188 56 L 68.992188 56 L 68.992188 110.019531 L 7.492188 110.019531 Z M 7.492188 56 " clip-rule="nonzero"/></clipPath><clipPath id="85fc9da948"><path d="M 31.914062 85.421875 L 44.664062 85.421875 L 44.664062 106.421875 L 31.914062 106.421875 Z M 31.914062 85.421875 " clip-rule="nonzero"/></clipPath></defs><rect x="-37.5" width="450" fill="#ffffff" y="-15" height="179.999997" fill-opacity="1"/><rect x="-37.5" width="450" fill="#ffffff" y="-15" height="179.999997" fill-opacity="1"/><rect x="-37.5" width="450" fill="#ffffff" y="-15" height="179.999997" fill-opacity="1"/><g fill="#5a3d30" fill-opacity="1"><g transform="translate(52.86539, 108.864334)"><g><path d="M 1.347656 -15.214844 C 1.347656 -5.949219 8.957031 0.796875 18.648438 0.796875 C 27.234375 0.796875 33.246094 -2.945312 33.246094 -7.300781 C 33.246094 -8.957031 31.960938 -10.121094 30.058594 -10.246094 C 27.726562 -8.710938 24.90625 -7.730469 23.371094 -7.730469 C 19.140625 -7.730469 16.132812 -11.472656 16.132812 -17.359375 C 16.132812 -22.390625 16.871094 -25.273438 17.972656 -25.273438 C 19.628906 -25.273438 20.855469 -22.265625 20.796875 -17.542969 C 22.265625 -17.175781 24.109375 -16.929688 26.191406 -16.929688 C 30.546875 -16.992188 33.0625 -19.753906 33.0625 -22.820312 C 33.0625 -26.746094 28.707031 -31.101562 18.832031 -31.101562 C 8.957031 -31.101562 1.347656 -24.414062 1.347656 -15.214844 Z M 1.347656 -15.214844 "/></g></g></g><g fill="#5a3d30" fill-opacity="1"><g transform="translate(86.722499, 108.864334)"><g><path d="M 1.347656 -15.089844 C 1.347656 -6.011719 8.957031 0.796875 19.445312 0.796875 C 27.664062 0.796875 33.246094 -3.128906 33.246094 -7.238281 C 33.246094 -9.015625 31.960938 -10.121094 30.058594 -10.246094 C 27.726562 -8.710938 24.90625 -7.730469 23.371094 -7.730469 C 20.609375 -7.730469 18.339844 -9.507812 17.113281 -12.515625 L 31.285156 -15.519531 C 32.816406 -16.683594 33.433594 -19.140625 33.433594 -20.121094 C 33.433594 -25.765625 27.480469 -31.101562 18.832031 -31.101562 C 9.203125 -31.101562 1.347656 -24.597656 1.347656 -15.089844 Z M 16.070312 -17.054688 C 15.457031 -22.082031 16.132812 -25.273438 17.359375 -25.273438 C 18.710938 -25.273438 20.488281 -23.371094 20.488281 -20.367188 C 20.488281 -19.691406 20.488281 -18.832031 20.242188 -18.15625 Z M 16.070312 -17.054688 "/></g></g></g><g fill="#5a3d30" fill-opacity="1"><g transform="translate(118.800864, 108.864334)"><g/></g></g><g fill="#5a3d30" fill-opacity="1"><g transform="translate(129.411682, 108.864334)"><g><path d="M 1.535156 -21.53125 C 1.535156 -8.710938 11.164062 0.796875 24.535156 0.796875 C 35.886719 0.796875 44.042969 -4.601562 44.042969 -10.671875 C 44.042969 -12.515625 42.511719 -13.371094 40.300781 -13.617188 C 37.480469 -10.367188 33.125 -7.972656 29.691406 -7.972656 C 21.960938 -7.972656 17.296875 -14.539062 17.296875 -25.027344 C 17.296875 -33.308594 18.527344 -37.234375 21.164062 -37.234375 C 24.476562 -37.234375 27.789062 -31.835938 29.320312 -25.824219 C 30.855469 -25.394531 34.046875 -25.089844 36.4375 -25.152344 C 41.160156 -25.335938 44.226562 -27.910156 44.226562 -31.714844 C 44.226562 -38.644531 35.945312 -43.675781 24.476562 -43.675781 C 11.101562 -43.675781 1.535156 -34.351562 1.535156 -21.53125 Z M 1.535156 -21.53125 "/></g></g></g><g fill="#5a3d30" fill-opacity="1"><g transform="translate(173.511882, 108.864334)"><g><path d="M 26.007812 -31.039062 C 22.757812 -31.039062 18.832031 -29.503906 16.808594 -26.316406 C 15.828125 -28.832031 13.1875 -30.855469 9.445312 -30.855469 C 5.828125 -30.855469 3.3125 -30.058594 2.390625 -29.382812 L 2.390625 -23.617188 C 4.171875 -23.617188 4.476562 -22.511719 4.476562 -20.425781 C 4.476562 -19.324219 4.476562 -8.035156 4.355469 0 L 18.894531 0 C 18.527344 -4.90625 18.464844 -9.753906 18.402344 -15.398438 C 18.527344 -20.183594 19.261719 -23.496094 20.425781 -23.496094 C 22.207031 -23.496094 22.820312 -19.8125 23.066406 -17.542969 C 30.058594 -16.253906 33.433594 -20.183594 33.433594 -24.84375 C 33.433594 -27.847656 30.917969 -31.039062 26.007812 -31.039062 Z M 26.007812 -31.039062 "/></g></g></g><g fill="#5a3d30" fill-opacity="1"><g transform="translate(204.976885, 108.864334)"><g><path d="M 1.347656 -15.089844 C 1.347656 -6.011719 8.957031 0.796875 19.445312 0.796875 C 27.664062 0.796875 33.246094 -3.128906 33.246094 -7.238281 C 33.246094 -9.015625 31.960938 -10.121094 30.058594 -10.246094 C 27.726562 -8.710938 24.90625 -7.730469 23.371094 -7.730469 C 20.609375 -7.730469 18.339844 -9.507812 17.113281 -12.515625 L 31.285156 -15.519531 C 32.816406 -16.683594 33.433594 -19.140625 33.433594 -20.121094 C 33.433594 -25.765625 27.480469 -31.101562 18.832031 -31.101562 C 9.203125 -31.101562 1.347656 -24.597656 1.347656 -15.089844 Z M 16.070312 -17.054688 C 15.457031 -22.082031 16.132812 -25.273438 17.359375 -25.273438 C 18.710938 -25.273438 20.488281 -23.371094 20.488281 -20.367188 C 20.488281 -19.691406 20.488281 -18.832031 20.242188 -18.15625 Z M 16.070312 -17.054688 "/></g></g></g><g fill="#5a3d30" fill-opacity="1"><g transform="translate(237.055244, 108.864334)"><g><path d="M 1.226562 -8.648438 C 1.226562 -2.882812 7.421875 0.734375 13.066406 0.734375 C 16.253906 0.734375 19.324219 -0.859375 21.53125 -3.3125 C 23.125 -0.921875 25.886719 0.492188 29.320312 0.492188 C 33.308594 0.492188 36.128906 -0.246094 37.113281 -0.980469 L 37.050781 -6.746094 C 34.78125 -6.746094 33.984375 -8.097656 33.738281 -10.671875 C 33.492188 -13.371094 33.308594 -15.640625 33.1875 -18.648438 C 32.757812 -27.234375 25.027344 -31.101562 15.765625 -31.101562 C 7.484375 -31.101562 3.375 -28.585938 3.375 -24.90625 C 3.375 -21.039062 9.015625 -19.140625 14.476562 -21.039062 C 14.539062 -22.574219 14.539062 -24.90625 15.640625 -24.90625 C 17.296875 -24.90625 18.527344 -22.757812 18.894531 -18.339844 L 18.953125 -17.484375 C 17.296875 -18.339844 15.214844 -18.710938 13.617188 -18.710938 C 6.871094 -18.710938 1.226562 -15.886719 1.226562 -8.648438 Z M 15.273438 -11.164062 C 15.273438 -13.066406 16.070312 -13.679688 16.992188 -13.679688 C 17.605469 -13.679688 18.527344 -13.371094 19.382812 -12.820312 L 19.628906 -10.121094 C 19.8125 -7.851562 19.445312 -6.5625 18.339844 -6.5625 C 16.929688 -6.5625 15.273438 -8.097656 15.273438 -11.164062 Z M 15.273438 -11.164062 "/></g></g></g><g fill="#5a3d30" fill-opacity="1"><g transform="translate(273.304449, 108.864334)"><g><path d="M 55.207031 -9.753906 C 55.207031 -11.59375 55.023438 -13.925781 54.410156 -19.507812 C 53.675781 -26.808594 49.503906 -31.039062 42.753906 -31.039062 C 39.933594 -31.039062 37.113281 -29.691406 34.289062 -26.683594 C 32.449219 -29.320312 29.566406 -31.039062 25.703125 -31.039062 C 22.636719 -31.039062 19.382812 -29.691406 16.441406 -27.050781 C 15.214844 -29.199219 12.699219 -30.855469 9.324219 -30.855469 C 5.765625 -30.855469 3.25 -30.058594 2.390625 -29.382812 L 2.390625 -23.617188 C 4.109375 -23.617188 4.476562 -22.511719 4.476562 -20.367188 C 4.476562 -19.078125 4.722656 -8.160156 4.539062 0 L 18.953125 0 C 18.710938 -4.476562 18.527344 -10.980469 18.527344 -17.238281 C 18.648438 -21.164062 19.078125 -23.679688 20.304688 -23.679688 C 21.46875 -23.679688 22.328125 -21.59375 22.574219 -17.851562 C 23.066406 -11.472656 23.25 -6.6875 23.371094 0 L 37.847656 0.121094 C 37.234375 -4.96875 36.867188 -11.042969 36.558594 -16.316406 C 36.4375 -22.082031 37.296875 -23.679688 38.460938 -23.679688 C 39.257812 -23.679688 39.75 -21.714844 39.996094 -19.015625 C 40.363281 -15.703125 40.546875 -12.023438 40.914062 -7.972656 C 41.34375 -3.003906 45.027344 0.550781 50.546875 0.613281 C 54.535156 0.675781 57.355469 -0.0625 58.335938 -0.796875 L 58.398438 -6.5625 C 56.433594 -6.5625 55.207031 -7.914062 55.207031 -9.753906 Z M 55.207031 -9.753906 "/></g></g></g><g fill="#5a3d30" fill-opacity="1"><g transform="translate(330.83719, 108.864334)"><g><path d="M 26.132812 -30.304688 C 25.273438 -27.359375 23.554688 -18.402344 22.023438 -11.902344 C 19.9375 -18.28125 17.484375 -27.296875 16.253906 -30.304688 L -0.308594 -30.304688 C 1.410156 -27.050781 12.390625 -5.089844 16.011719 3.742188 C 15.765625 4.476562 15.519531 5.277344 15.273438 5.949219 C 14.539062 7.730469 13.617188 8.832031 12.085938 8.832031 C 10.429688 8.832031 8.894531 7.300781 8.402344 4.417969 C 4.601562 3.433594 0.796875 5.152344 0.796875 8.773438 C 0.796875 11.59375 3.3125 14.660156 8.894531 14.660156 C 18.035156 14.660156 21.53125 11.042969 24.597656 2.820312 L 25.457031 0 C 28.277344 -8.035156 35.394531 -26.4375 37.542969 -30.304688 Z M 26.132812 -30.304688 "/></g></g></g><g clip-path="url(#14c120ab6b)"><path fill="#5a3d30" d="M 50.523438 34.742188 C 45.925781 34.742188 41.617188 36.398438 38.230469 39.429688 C 34.96875 36.519531 30.664062 34.746094 25.953125 34.746094 C 25.210938 34.746094 24.484375 34.792969 23.765625 34.878906 C 26.09375 29.148438 31.660156 25.316406 38.035156 25.316406 C 44.382812 25.316406 49.945312 29.128906 52.285156 34.832031 C 51.707031 34.773438 51.121094 34.742188 50.523438 34.742188 Z M 55.75 35.5 C 53.453125 27.667969 46.296875 22.273438 38.035156 22.273438 C 29.710938 22.273438 22.535156 27.722656 20.28125 35.636719 C 12.871094 38.03125 7.492188 44.988281 7.492188 53.179688 C 7.492188 53.488281 7.5 53.792969 7.515625 54.097656 L 10.570312 54.097656 C 10.550781 53.792969 10.539062 53.488281 10.539062 53.179688 C 10.539062 44.691406 17.453125 37.789062 25.953125 37.789062 C 34.449219 37.789062 41.363281 44.691406 41.363281 53.179688 C 41.363281 53.488281 41.351562 53.792969 41.335938 54.097656 L 44.390625 54.097656 C 44.402344 53.792969 44.414062 53.488281 44.414062 53.179688 C 44.414062 48.8125 42.882812 44.800781 40.332031 41.636719 C 43.148438 39.148438 46.714844 37.789062 50.523438 37.789062 C 59.023438 37.789062 65.9375 44.691406 65.9375 53.179688 C 65.9375 53.488281 65.925781 53.792969 65.90625 54.097656 L 68.964844 54.097656 C 68.976562 53.792969 68.984375 53.488281 68.984375 53.179688 C 68.984375 44.824219 63.390625 37.757812 55.75 35.5 " fill-opacity="1" fill-rule="nonzero"/></g><g clip-path="url(#dc2eb2895c)"><path fill="#5a3d30" d="M 33.957031 78.023438 C 33.808594 79.230469 32.714844 80.089844 31.503906 79.945312 C 31.417969 79.9375 31.320312 79.917969 31.238281 79.898438 C 31.238281 79.898438 30.835938 79.796875 30.136719 79.625 C 29.78125 79.542969 29.367188 79.398438 28.882812 79.253906 C 28.40625 79.109375 27.875 78.898438 27.296875 78.683594 C 26.726562 78.441406 26.113281 78.179688 25.484375 77.855469 C 25.164062 77.707031 24.851562 77.519531 24.53125 77.339844 C 24.203125 77.164062 23.882812 76.964844 23.5625 76.757812 C 23.234375 76.558594 22.914062 76.335938 22.59375 76.109375 C 22.269531 75.886719 21.957031 75.640625 21.644531 75.394531 C 21.015625 74.902344 20.414062 74.359375 19.835938 73.800781 C 19.265625 73.230469 18.714844 72.652344 18.214844 72.042969 C 17.703125 71.445312 17.253906 70.824219 16.824219 70.21875 C 16.410156 69.605469 16.019531 69.003906 15.6875 68.414062 C 15.347656 67.828125 15.058594 67.261719 14.800781 66.734375 C 14.292969 65.675781 13.9375 64.765625 13.71875 64.117188 C 13.605469 63.792969 13.523438 63.53125 13.472656 63.351562 C 13.417969 63.167969 13.394531 63.066406 13.394531 63.066406 C 13.289062 62.695312 13.507812 62.308594 13.882812 62.203125 C 14.226562 62.109375 14.582031 62.285156 14.714844 62.609375 L 14.730469 62.644531 C 14.730469 62.644531 14.765625 62.722656 14.828125 62.871094 C 14.894531 63.023438 14.992188 63.25 15.132812 63.535156 C 15.414062 64.105469 15.84375 64.910156 16.4375 65.824219 C 16.734375 66.28125 17.066406 66.769531 17.445312 67.265625 C 17.8125 67.765625 18.234375 68.269531 18.675781 68.773438 C 19.132812 69.273438 19.605469 69.78125 20.125 70.25 C 20.636719 70.734375 21.183594 71.1875 21.738281 71.621094 C 22.308594 72.039062 22.882812 72.445312 23.472656 72.800781 C 23.769531 72.976562 24.058594 73.152344 24.359375 73.304688 C 24.65625 73.464844 24.949219 73.621094 25.246094 73.753906 C 25.539062 73.894531 25.828125 74.027344 26.117188 74.140625 C 26.410156 74.257812 26.6875 74.378906 26.972656 74.46875 C 27.527344 74.675781 28.066406 74.828125 28.558594 74.96875 C 29.0625 75.085938 29.519531 75.207031 29.933594 75.277344 C 30.347656 75.34375 30.699219 75.421875 31 75.453125 C 31.597656 75.523438 31.9375 75.5625 31.9375 75.5625 L 32.03125 75.574219 C 33.238281 75.71875 34.101562 76.816406 33.957031 78.023438 Z M 66.878906 56.902344 L 9.597656 56.902344 C 8.628906 56.902344 7.867188 57.6875 7.960938 58.652344 C 9.234375 71.882812 19.015625 82.636719 31.773438 85.390625 C 32.722656 85.597656 33.5 86.5 33.5 87.464844 L 33.5 101.707031 C 33.5 102.675781 32.808594 103.835938 31.957031 104.296875 L 24.472656 108.351562 C 22.769531 109.277344 22.960938 110.023438 24.898438 110.023438 L 51.578125 110.023438 C 53.515625 110.023438 53.707031 109.277344 52.003906 108.351562 L 44.519531 104.296875 C 43.667969 103.835938 42.976562 102.675781 42.976562 101.707031 L 42.976562 87.464844 C 42.976562 86.5 43.753906 85.597656 44.703125 85.390625 C 57.464844 82.636719 67.242188 71.882812 68.515625 58.652344 C 68.609375 57.6875 67.847656 56.902344 66.878906 56.902344 " fill-opacity="1" fill-rule="nonzero"/></g><g clip-path="url(#85fc9da948)"><path fill="#5a3d30" d="M 31.914062 85.421875 L 44.660156 85.421875 L 44.660156 106.421875 L 31.914062 106.421875 L 31.914062 85.421875 " fill-opacity="1" fill-rule="nonzero"/></g></svg>